<mxfile host="app.diagrams.net" modified="2024-06-28T07:50:03.024Z" agent="Mozilla/5.0 (X11; Linux x86_64) AppleWebKit/537.36 (KHTML, like Gecko) Chrome/125.0.0.0 Safari/537.36" version="24.6.4" etag="SLQS5hLDhpv9dIZoU6th" type="github">
  <diagram name="Page-1" id="1yxg96nS6Pqhg_M7I39l">
    <mxGraphModel>
      <root>
        <mxCell id="0" />
        <mxCell id="1" parent="0" />
      </root>
    </mxGraphModel>
  </diagram>
</mxfile>
